# xmcd
#
# Track frame offsets: 
#        150
#        18825
#        36375
#        54736
#        73178
#        92190
#        109177
#        128002
#        146452
#        166702
#
# Disc length: 2490 seconds
#
# Revision: 0
# Processed by: cddbd v1.5.2PL0 Copyright (c) Steve Scherf et al.
# Submitted via: ExactAudioCopy v0.95a5
#
DISCID=8609b80a
DTITLE=Various Artist - All Areas Vol. 84 ZERO - ATRIBUTETOSMASHINGPUMPKINS
DYEAR=2007
DGENRE=Alternative
TTITLE0=The Academy Is - Mayonaise
TTITLE1=The New Amsterdams - Thity-Three
TTITLE2=Panic! At The Disco - Tonight. Tonight
TTITLE3=+44 - I Am One
TTITLE4=Young Love - 1979
TTITLE5=Ben Kweller - Today
TTITLE6=Test Your Reflex - Ava Adore
TTITLE7=The Bravery - Rocket
TTITLE8=Gliss - Rhinoceros
TTITLE9=Most Dangerous Race - Signal To Noise
EXTD=
EXTT0=
EXTT1=
EXTT2=
EXTT3=
EXTT4=
EXTT5=
EXTT6=
EXTT7=
EXTT8=
EXTT9=
PLAYORDER=
